<?xml version="1.0" encoding="UTF-8" standalone="no"?>
<svg
   version="1.1"
   id="Layer_1"
   x="0px"
   y="0px"
   width="100%"
   viewBox="0 0 160 168"
   enable-background="new 0 0 160 168"
   xml:space="preserve"
   sodipodi:docname="fabtechs-logo.svg"
   inkscape:version="1.3.2 (091e20e, 2023-11-25)"
   xmlns:inkscape="http://www.inkscape.org/namespaces/inkscape"
   xmlns:sodipodi="http://sodipodi.sourceforge.net/DTD/sodipodi-0.dtd"
   xmlns="http://www.w3.org/2000/svg"
   xmlns:svg="http://www.w3.org/2000/svg"><defs
   id="defs57"><linearGradient
     id="swatch58"
     inkscape:swatch="solid"><stop
       style="stop-color:#77808a;stop-opacity:1;"
       offset="0"
       id="stop58" /></linearGradient></defs><sodipodi:namedview
   id="namedview57"
   pagecolor="#505050"
   bordercolor="#ffffff"
   borderopacity="1"
   inkscape:showpageshadow="0"
   inkscape:pageopacity="0"
   inkscape:pagecheckerboard="1"
   inkscape:deskcolor="#505050"
   inkscape:zoom="1.6115014"
   inkscape:cx="77.877688"
   inkscape:cy="64.846362"
   inkscape:window-width="1792"
   inkscape:window-height="1120"
   inkscape:window-x="0"
   inkscape:window-y="0"
   inkscape:window-maximized="0"
   inkscape:current-layer="layer1" />

























































<g
   inkscape:groupmode="layer"
   id="layer1"
   inkscape:label="Fabtechs logo"
   style="display:inline"><g
     id="g109"><path
       d="m 79.48945,42.60257 c -3.58528,0.01195 -7.14319,0.458087 -10.5293,1.320313 v 4.416015 5.158203 5.175781 1.740235 13.984375 1.080078 c -0.0364,0.215193 -0.0993,0.426144 -0.1875,0.628906 -0.45531,1.136972 -1.63958,1.909184 -2.98633,1.947266 -1.34603,-0.03879 -2.52932,-0.810874 -2.98437,-1.947266 -0.0836,-0.194887 -0.14384,-0.3972 -0.17969,-0.603516 V 74.717804 61.266632 59.65921 54.155304 50.545929 c -3.04298,1.356988 -5.90293,3.077287 -8.51367,5.121094 -2.43881,1.902842 -4.64508,4.075029 -6.57422,6.472656 -0.84642,1.07486 -1.63596,2.191686 -2.36524,3.345703 -0.29245,0.446845 -0.57574,0.899457 -0.8496,1.357422 -3.55001,5.97952 -5.43824,12.764057 -5.47657,19.677734 0.0251,0.377995 0.0557,0.755676 0.0918,1.132813 h -4.13867 -2.82617 -1.79297 -0.38477 v 9.056641 h 5.4082 c 1.92209,2.069389 4.33696,3.996428 7.1836,5.732418 9.44272,5.71058 22.98876,8.98264 37.21875,8.99024 13.93492,-0.0169 27.221,-3.16433 36.63086,-8.67774 3.0959,-1.81354 5.71059,-3.847851 7.76953,-6.044918 h 5.18164 v -9.056641 h -0.1582 -2.55078 -2.77735 -3.88281 c 0.0361,-0.377129 0.0667,-0.754826 0.0918,-1.132813 -0.005,-6.818596 -1.8103,-13.521928 -5.24024,-19.458984 -0.37942,-0.658131 -0.77803,-1.305554 -1.19531,-1.941406 -0.61735,-0.945487 -1.27552,-1.864964 -1.97266,-2.75586 -1.93755,-2.457812 -4.16383,-4.684746 -6.63281,-6.634765 -2.73598,-2.165873 -5.74905,-3.974109 -8.96289,-5.378906 v 3.789062 5.324219 1.753906 14.007813 1.226562 c -0.0353,0.191341 -0.0915,0.379128 -0.16797,0.560547 -0.45763,1.13274 -1.63933,1.901191 -2.98242,1.939453 -1.34381,-0.03756 -2.52648,-0.806134 -2.98438,-1.939453 -0.0993,-0.22151 -0.16815,-0.45303 -0.20507,-0.689453 V 75.694367 60.368195 58.530304 53.450226 48.178742 43.782258 C 86.3115,43.003247 82.91146,42.605104 79.48945,42.60257 Z m 40.15234,49.013672 c -0.0511,0.04174 -0.10255,0.08341 -0.1543,0.125 -2.47321,1.857517 -5.57091,3.533516 -9.18359,4.96875 -8.5795,3.385578 -19.62107,5.255588 -31.05664,5.259768 -11.43557,-0.004 -22.47714,-1.87419 -31.05664,-5.259768 -3.47489,-1.374738 -6.477,-2.972222 -8.9082,-4.740235 -0.12824,-0.103034 -0.25456,-0.206562 -0.37891,-0.310547 0.12181,0.05167 0.24422,0.103112 0.36719,0.154297 4.44915,2.009299 9.71565,3.667773 15.54883,4.896485 7.57059,1.607345 15.92537,2.451919 24.40234,2.466796 8.47763,-0.01475 16.83312,-0.859327 24.4043,-2.466796 5.97212,-1.255332 11.35044,-2.960718 15.86718,-5.03125 0.0496,-0.02079 0.0991,-0.04163 0.14844,-0.0625 z"
       style="fill:#f39c00;fill-opacity:1;stroke:#f39c00;stroke-width:0.336219;stroke-linejoin:bevel;stroke-opacity:1"
       id="path103" /><path
       d="M 142.30266,54.455025 A 65.668007,65.413399 0 0 1 145.32024,74.054634 65.668007,65.413399 0 0 1 79.65227,139.46871 65.668007,65.413399 0 0 1 13.9843,74.054634 65.668007,65.413399 0 0 1 17.65032,52.9394 69.600761,69.346176 0 0 0 9.92375,84.367134 69.600761,69.346176 0 0 0 79.52532,153.71285 69.600761,69.346176 0 0 0 149.12493,84.367134 69.600761,69.346176 0 0 0 142.30266,54.455025 Z"
       style="opacity:1;fill:#000000;fill-opacity:1;stroke:#000000;stroke-width:0.418441;stroke-linejoin:bevel;stroke-opacity:1"
       id="path106" /><path
       d="M 79.90646,17.282345 A 61.10149,59.828457 0 0 0 18.8049,77.11047 a 61.10149,59.828457 0 0 0 6.45508,26.52734 57.342232,57.469536 0 0 1 -2.56836,-16.851559 57.342232,57.469536 0 0 1 57.3418,-57.470703 57.342232,57.469536 0 0 1 57.34375,57.470703 57.342232,57.469536 0 0 1 -2.24024,15.804689 61.10149,59.828457 0 0 0 5.8711,-25.48047 61.10149,59.828457 0 0 0 -61.10157,-59.828125 z"
       style="opacity:1;fill:#000000;fill-opacity:1;stroke:#000000;stroke-width:0.358332;stroke-linejoin:bevel;stroke-opacity:1"
       id="path109" /></g></g></svg>
